<?xml version="1.0" encoding="utf-8"?>
<!-- Generator: Adobe Illustrator 16.0.0, SVG Export Plug-In . SVG Version: 6.00 Build 0)  -->
<!DOCTYPE svg PUBLIC "-//W3C//DTD SVG 1.1//EN" "http://www.w3.org/Graphics/SVG/1.1/DTD/svg11.dtd">
<svg version="1.1" id="Capa_1" xmlns="http://www.w3.org/2000/svg" xmlns:xlink="http://www.w3.org/1999/xlink" x="0px" y="0px"
	 width="400px" height="400px" viewBox="0 0 400 400" enable-background="new 0 0 400 400" xml:space="preserve">
<g>
	<g>
		<path fill="#0582ca" d="M396.567,191.714l-55.941-51.487V71.093c0-6.478-5.242-11.719-11.719-11.719h-69.134L208.285,3.433
			c-4.577-4.577-11.993-4.577-16.571,0l-51.487,55.942H71.094c-6.477,0-11.719,5.241-11.719,11.719v69.134L3.434,191.714
			c-4.577,4.578-4.577,11.994,0,16.571l55.941,51.487v69.134c0,6.477,5.242,11.719,11.719,11.719h69.134l51.487,55.941
			c2.289,2.289,5.288,3.434,8.285,3.434s5.997-1.145,8.286-3.434l51.488-55.941h69.134c6.478,0,11.719-5.242,11.719-11.719v-69.134
			l55.941-51.487C401.145,203.708,401.145,196.292,396.567,191.714z M200,305.469c-58.159,0-105.469-47.311-105.469-105.469
			S141.842,94.531,200,94.531S305.47,141.841,305.47,200S258.159,305.469,200,305.469z"/>
	</g>
</g>
<g>
	<g>
		<path fill="#0582ca" d="M200,117.968c-45.228,0-82.032,36.804-82.032,82.031c0,45.227,36.804,82.032,82.032,82.032
			c45.228,0,82.031-36.805,82.031-82.032C282.031,154.772,245.229,117.968,200,117.968z"/>
	</g>
</g>
</svg>
